grf
version=1
nRows=9
nColumns=37
inDegrees=no
endheader
time	ground_force_1_vx	ground_force_1_vy	ground_force_1_vz	ground_force_1_px	ground_force_1_py	ground_force_1_pz	ground_moment_1_mx	ground_moment_1_my	ground_moment_1_mz	ground_force_2_vx	ground_force_2_vy	ground_force_2_vz	ground_force_2_px	ground_force_2_py	ground_force_2_pz	ground_moment_2_mx	ground_moment_2_my	ground_moment_2_mz	ground_force_3_vx	ground_force_3_vy	ground_force_3_vz	ground_force_3_px	ground_force_3_py	ground_force_3_pz	ground_moment_3_mx	ground_moment_3_my	ground_moment_3_mz	ground_force_4_vx	ground_force_4_vy	ground_force_4_vz	ground_force_4_px	ground_force_4_py	ground_force_4_pz	ground_moment_4_mx	ground_moment_4_my	ground_moment_4_mz
      3.18000000	      0.00000000	     -0.00000000	      0.00000000	      0.00000000	      0.00000000	      0.00000000	      0.00000000	      0.00000000	      0.00000000	     14.99105644	     21.84186554	   -430.86004639	   -296.61307220	  -1104.24526211	      0.00000000	      0.00000000	      0.00000000	   9283.91374860	     -6.30465590	    -25.79116385	   -446.90917969	   -270.19022795	   -674.15401181	      0.00000000	      0.00000000	     -0.00000000	 -14767.98666881	      0.00000000	     -0.00000000	      0.00000000	      0.00000000	      0.00000000	      0.00000000	      0.00000000	      0.00000000	      0.00000000
      3.19000000	      0.00000000	     -0.00000000	      0.00000000	      0.00000000	      0.00000000	      0.00000000	      0.00000000	      0.00000000	      0.00000000	     14.98962402	     22.19911003	   -428.04962158	   -296.04201726	  -1101.97646555	      0.00000000	      0.00000000	      0.00000000	   9421.95038203	     -6.65899688	    -25.26339854	   -447.59445190	   -270.26818397	   -674.62394345	      0.00000000	      0.00000000	     -0.00000000	 -14883.06798681	      0.00000000	     -0.00000000	      0.00000000	      0.00000000	      0.00000000	      0.00000000	      0.00000000	      0.00000000	      0.00000000
      3.20000000	      0.00000000	     -0.00000000	      0.00000000	      0.00000000	      0.00000000	      0.00000000	      0.00000000	      0.00000000	      0.00000000	     14.45311451	     21.92607880	   -425.62591553	   -296.23096098	  -1102.15626214	      0.00000000	      0.00000000	      0.00000000	   9552.83401831	     -7.27938969	    -25.34832319	   -446.55691528	   -268.73465973	   -675.16209083	      0.00000000	      0.00000000	     -0.00000000	 -14994.54868217	      0.00000000	     -0.00000000	      0.00000000	      0.00000000	      0.00000000	      0.00000000	      0.00000000	      0.00000000	      0.00000000
      3.21000000	      0.00000000	     -0.00000000	      0.00000000	      0.00000000	      0.00000000	      0.00000000	      0.00000000	      0.00000000	      0.00000000	     14.18534946	     21.47077942	   -424.52923584	   -296.11613047	  -1102.22703098	      0.00000000	      0.00000000	      0.00000000	   9802.50664077	     -7.98219854	    -25.26265075	   -445.51745605	   -268.75044840	   -674.93547569	      0.00000000	      0.00000000	     -0.00000000	 -14958.31996022	      0.00000000	     -0.00000000	      0.00000000	      0.00000000	      0.00000000	      0.00000000	      0.00000000	      0.00000000	      0.00000000
      3.22000000	      0.00000000	     -0.00000000	      0.00000000	      0.00000000	      0.00000000	      0.00000000	      0.00000000	      0.00000000	      0.00000000	     15.34572887	     20.05813980	   -423.45675659	   -295.81437652	  -1103.06697631	      0.00000000	      0.00000000	      0.00000000	   9638.71124116	     -8.78005732	    -25.96503944	   -443.07342529	   -267.89533765	   -675.36170484	      0.00000000	      0.00000000	     -0.00000000	 -14880.31991239	      0.00000000	     -0.00000000	      0.00000000	      0.00000000	      0.00000000	      0.00000000	      0.00000000	      0.00000000	      0.00000000
      3.23000000	      0.00000000	     -0.00000000	      0.00000000	      0.00000000	      0.00000000	      0.00000000	      0.00000000	      0.00000000	      0.00000000	     16.05987167	     19.87212181	   -420.30764771	   -295.27049779	  -1103.15282646	      0.00000000	      0.00000000	      0.00000000	   9657.98668272	     -9.31396422	    -25.61595835	   -442.73217773	   -267.67265352	   -675.48804621	      0.00000000	     -0.00000000	     -0.00000000	 -14971.81605339	      0.00000000	     -0.00000000	      0.00000000	      0.00000000	      0.00000000	      0.00000000	      0.00000000	      0.00000000	      0.00000000
      3.24000000	      0.00000000	     -0.00000000	      0.00000000	      0.00000000	      0.00000000	      0.00000000	      0.00000000	      0.00000000	      0.00000000	     17.03812218	     18.45053482	   -417.81402588	   -294.83064832	  -1103.48826369	      0.00000000	      0.00000000	      0.00000000	   9396.62020503	     -9.49205622	    -25.61383927	   -441.32983398	   -268.37299797	   -675.15664548	      0.00000000	      0.00000000	     -0.00000000	 -14834.17049940	      0.00000000	     -0.00000000	      0.00000000	      0.00000000	      0.00000000	      0.00000000	      0.00000000	      0.00000000	      0.00000000
      3.25000000	      0.00000000	     -0.00000000	      0.00000000	      0.00000000	      0.00000000	      0.00000000	      0.00000000	      0.00000000	      0.00000000	     17.75204086	     17.55826378	   -416.05102539	   -294.85449067	  -1103.21132005	      0.00000000	      0.00000000	      0.00000000	   9581.23326885	    -10.20043029	    -26.14452464	   -441.31732178	   -267.53920333	   -674.48361797	      0.00000000	      0.00000000	     -0.00000000	 -14615.07457637	      0.00000000	     -0.00000000	      0.00000000	      0.00000000	      0.00000000	      0.00000000	      0.00000000	      0.00000000	      0.00000000
      3.26000000	      0.00000000	     -0.00000000	      0.00000000	      0.00000000	      0.00000000	      0.00000000	      0.00000000	      0.00000000	      0.00000000	     18.37882042	     16.93041801	   -414.63439941	   -295.73886216	  -1103.59526038	      0.00000000	      0.00000000	      0.00000000	   9338.05632999	    -10.73582881	    -26.49741079	   -441.32525635	   -267.34398343	   -675.72073010	      0.00000000	      0.00000000	     -0.00000000	 -14761.80724724	      0.00000000	     -0.00000000	      0.00000000	      0.00000000	      0.00000000	      0.00000000	      0.00000000	      0.00000000	      0.00000000
